# xmcd
#
# Track frame offsets:
#	150
#	11402
#	25662
#	40570
#	56202
#	77120
#	98245
#	112167
#	131962
#	145945
#	161372
#	180267
#	193902
#	206590
#	221502
#	236647
#	255877
#	274487
#	286987
#	305807
#
# Disc length: 4274 seconds
#
# Revision: 3
# Processed by: cddbd v1.5.1PL0 Copyright (c) Steve Scherf et al.
# Submitted via: MusicManager 7.0.3.0 
#
DISCID=2310b014
DTITLE=Various Artist - 20 Years of Stony Plain - Disc 1
DYEAR=1900
DGENRE=
TTITLE0=Steve Earle - Mystery Train Part II
TTITLE1=Great Speckled Bird - Long Long Time To Get Old
TTITLE2=Grievous Angels - Crossing The Causeway
TTITLE3=Cindy Church - Sleeping Alone
TTITLE4=Jr. Gone Wild - The Guy Who Came In From The Cold
TTITLE5=Amos Garret and Maria Muldaur - Small Town Talk
TTITLE6=Sylvia Tyson - You Were On My Mind
TTITLE7=Spirit of the West - Political
TTITLE8=Jessie Winchester - Brand New Tennessee Waltz
TTITLE9=Gary Fjellgaard - Rock 'n' Roll Dreams
TTITLE10=Rita Chiarelli and Prairie Oyster - Heartbreak of the Week
TTITLE11=Webb Wilder and The Beatnecks - How Long Can She Last
TTITLE12=Paul Hann - Wrecked on the Highway
TTITLE13=Austin Lounge Lizards - The Car Hank Died In
TTITLE14=Doug Sahm and The Formerly Brothers - Banks of the Old Pontchartrain
TTITLE15=Jo-El Sonnier - Rainin' In My Heart
TTITLE16=Bobby Charles - The Jealous Kind
TTITLE17=South Mountain - This Time, Time
TTITLE18=Tom Russell and Ian Tyson - Navajo Rug
TTITLE19=Ian Tyson - 'Til The Circle Is Through
EXTD=
EXTT0=
EXTT1=
EXTT2=
EXTT3=
EXTT4=
EXTT5=
EXTT6=
EXTT7=
EXTT8=
EXTT9=
EXTT10=
EXTT11=
EXTT12=
EXTT13=
EXTT14=
EXTT15=
EXTT16=
EXTT17=
EXTT18=
EXTT19=
PLAYORDER=
